<svg width="88" height="100" viewBox="0 0 88 100" fill="none" xmlns="http://www.w3.org/2000/svg">
<path d="M46.543 63.8496H23.8379V50.7715H46.543C50.2565 50.7715 53.2637 50.166 55.5645 48.9551C57.9056 47.7038 59.6211 46.0085 60.7109 43.8691C61.8008 41.6895 62.3457 39.207 62.3457 36.4219C62.3457 33.7174 61.8008 31.1947 60.7109 28.8535C59.6211 26.5124 57.9056 24.6152 55.5645 23.1621C53.2637 21.709 50.2565 20.9824 46.543 20.9824H29.2871V96H12.6367V7.84375H46.543C53.4049 7.84375 59.2578 9.07487 64.1016 11.5371C68.9857 13.959 72.6992 17.3294 75.2422 21.6484C77.8255 25.9271 79.1172 30.8112 79.1172 36.3008C79.1172 41.9922 77.8255 46.8965 75.2422 51.0137C72.6992 55.1309 68.9857 58.2995 64.1016 60.5195C59.2578 62.7396 53.4049 63.8496 46.543 63.8496Z" fill="black"/>
<path d="M23.8379 63.8496H22.3379V65.3496H23.8379V63.8496ZM23.8379 50.7715V49.2715H22.3379V50.7715H23.8379ZM55.5645 48.9551L56.2631 50.2825L56.2715 50.278L55.5645 48.9551ZM60.7109 43.8691L62.0475 44.55L62.0526 44.54L60.7109 43.8691ZM55.5645 23.1621L54.7634 24.4304L54.7734 24.4366L55.5645 23.1621ZM29.2871 20.9824V19.4824H27.7871V20.9824H29.2871ZM29.2871 96V97.5H30.7871V96H29.2871ZM12.6367 96H11.1367V97.5H12.6367V96ZM12.6367 7.84375V6.34375H11.1367V7.84375H12.6367ZM64.1016 11.5371L63.4218 12.8743L63.4285 12.8776L63.4352 12.881L64.1016 11.5371ZM75.2422 21.6484L73.9496 22.4095L73.9538 22.4166L73.9581 22.4237L75.2422 21.6484ZM75.2422 51.0137L73.9716 50.2164L73.966 50.2254L75.2422 51.0137ZM64.1016 60.5195L63.4809 59.154L63.4766 59.1559L64.1016 60.5195ZM46.543 62.3496H23.8379V65.3496H46.543V62.3496ZM25.3379 63.8496V50.7715H22.3379V63.8496H25.3379ZM23.8379 52.2715H46.543V49.2715H23.8379V52.2715ZM46.543 52.2715C50.4023 52.2715 53.6745 51.6449 56.2631 50.2825L54.8658 47.6277C52.8528 48.6872 50.1107 49.2715 46.543 49.2715V52.2715ZM56.2715 50.278C58.8533 48.898 60.8038 46.9914 62.0475 44.55L59.3744 43.1883C58.4384 45.0255 56.9579 46.5095 54.8574 47.6322L56.2715 50.278ZM62.0526 44.54C63.2605 42.124 63.8457 39.4065 63.8457 36.4219H60.8457C60.8457 39.0076 60.341 41.2549 59.3693 43.1983L62.0526 44.54ZM63.8457 36.4219C63.8457 33.5093 63.2573 30.7693 62.0708 28.2205L59.3511 29.4866C60.3442 31.6201 60.8457 33.9256 60.8457 36.4219H63.8457ZM62.0708 28.2205C60.8494 25.5967 58.9272 23.4839 56.3555 21.8876L54.7734 24.4366C56.884 25.7466 58.3928 27.428 59.3511 29.4866L62.0708 28.2205ZM56.3654 21.8939C53.7525 20.2436 50.4401 19.4824 46.543 19.4824V22.4824C50.0729 22.4824 52.7748 23.1744 54.7635 24.4303L56.3654 21.8939ZM46.543 19.4824H29.2871V22.4824H46.543V19.4824ZM27.7871 20.9824V96H30.7871V20.9824H27.7871ZM29.2871 94.5H12.6367V97.5H29.2871V94.5ZM14.1367 96V7.84375H11.1367V96H14.1367ZM12.6367 9.34375H46.543V6.34375H12.6367V9.34375ZM46.543 9.34375C53.2292 9.34375 58.8367 10.5435 63.4218 12.8743L64.7813 10.2C59.6789 7.60625 53.5806 6.34375 46.543 6.34375V9.34375ZM63.4352 12.881C68.0823 15.1853 71.5673 18.3634 73.9496 22.4095L76.5348 20.8874C73.8311 16.2954 69.8891 12.7327 64.7679 10.1933L63.4352 12.881ZM73.9581 22.4237C76.3865 26.4458 77.6172 31.0567 77.6172 36.3008H80.6172C80.6172 30.5657 79.2645 25.4084 76.5263 20.8731L73.9581 22.4237ZM77.6172 36.3008C77.6172 41.7592 76.381 46.3765 73.9716 50.2164L76.5128 51.8109C79.2701 47.4165 80.6172 42.2252 80.6172 36.3008H77.6172ZM73.966 50.2254C71.5962 54.0622 68.1247 57.0432 63.4809 59.154L64.7223 61.8851C69.8467 59.5558 73.8022 56.1995 76.5184 51.8019L73.966 50.2254ZM63.4766 59.1559C58.8768 61.2642 53.249 62.3496 46.543 62.3496V65.3496C53.5609 65.3496 59.6388 64.215 64.7265 61.8831L63.4766 59.1559Z" fill="black"/>
<mask id="mask0_1_49" style="mask-type:alpha" maskUnits="userSpaceOnUse" x="12" y="7" width="68" height="89">
<path d="M46.543 63.8496H23.8379V50.7715H46.543C50.2565 50.7715 53.2637 50.166 55.5645 48.9551C57.9056 47.7038 59.6211 46.0085 60.7109 43.8691C61.8008 41.6895 62.3457 39.207 62.3457 36.4219C62.3457 33.7174 61.8008 31.1947 60.7109 28.8535C59.6211 26.5124 57.9056 24.6152 55.5645 23.1621C53.2637 21.709 50.2565 20.9824 46.543 20.9824H29.2871V96H12.6367V7.84375H46.543C53.4049 7.84375 59.2578 9.07487 64.1016 11.5371C68.9857 13.959 72.6992 17.3294 75.2422 21.6484C77.8255 25.9271 79.1172 30.8112 79.1172 36.3008C79.1172 41.9922 77.8255 46.8965 75.2422 51.0137C72.6992 55.1309 68.9857 58.2995 64.1016 60.5195C59.2578 62.7396 53.4049 63.8496 46.543 63.8496Z" fill="black"/>
</mask>
<g mask="url(#mask0_1_49)">
<path d="M-5 36.0283H91V2.9998H-5V36.0283Z" fill="#2176C4"/>
<rect width="96" height="32.6126" transform="matrix(1 0 0 -1 -5 98)" fill="#2176C4"/>
<rect width="96" height="33.0285" transform="matrix(1 0 0 -1 -5 69.0571)" fill="#FAFAFA"/>
</g>
</svg>
